<mxfile host="Electron" modified="2023-12-01T19:41:58.762Z" agent="Mozilla/5.0 (Macintosh; Intel Mac OS X 10_15_7) AppleWebKit/537.36 (KHTML, like Gecko) draw.io/22.1.2 Chrome/114.0.5735.289 Electron/25.9.4 Safari/537.36" etag="6PWVtFcfzuxpNjDcKJLB" version="22.1.2" type="device">
  <diagram name="Page-1" id="489-Y6l45K9RwA2v5czV">
    <mxGraphModel dx="1114" dy="777" grid="1" gridSize="10" guides="1" tooltips="1" connect="1" arrows="1" fold="1" page="1" pageScale="1" pageWidth="850" pageHeight="1100" math="0" shadow="0">
      <root>
        <mxCell id="0" />
        <mxCell id="1" parent="0" />
        <mxCell id="61YUILgPsixsjPH53s8T-1" value="" style="rounded=0;whiteSpace=wrap;html=1;" parent="1" vertex="1">
          <mxGeometry x="50" y="30" width="740" height="1000" as="geometry" />
        </mxCell>
        <mxCell id="B38ijn1Cd_YMwXdmA-u2-2" value="&lt;div style=&quot;text-align: left;&quot;&gt;view high scores&amp;nbsp; &amp;nbsp; &amp;nbsp; &amp;nbsp; &amp;nbsp; &amp;nbsp; &amp;nbsp; &amp;nbsp; &amp;nbsp; &amp;nbsp; &amp;nbsp; &amp;nbsp; &amp;nbsp; &amp;nbsp;&lt;/div&gt;&lt;div style=&quot;text-align: right;&quot;&gt;timer&lt;/div&gt;&lt;br&gt;&lt;br&gt;&lt;br&gt;Title screen&lt;br&gt;&lt;br&gt;&lt;br&gt;&lt;br&gt;start button" style="rounded=1;whiteSpace=wrap;html=1;fillColor=#f8cecc;strokeColor=#b85450;" vertex="1" parent="1">
          <mxGeometry x="60" y="50" width="200" height="200" as="geometry" />
        </mxCell>
        <mxCell id="B38ijn1Cd_YMwXdmA-u2-7" value="&lt;div style=&quot;text-align: left;&quot;&gt;view high scores&amp;nbsp; &amp;nbsp; &amp;nbsp; &amp;nbsp; &amp;nbsp; &amp;nbsp; &amp;nbsp; &amp;nbsp; &amp;nbsp; &amp;nbsp; &amp;nbsp; &amp;nbsp; &amp;nbsp; &amp;nbsp;&lt;/div&gt;&lt;div style=&quot;text-align: right;&quot;&gt;timer&lt;/div&gt;&lt;br&gt;&lt;br&gt;&lt;br&gt;question 1 with&amp;nbsp;&lt;br&gt;4 solution buttons&lt;br&gt;&lt;br&gt;&lt;br&gt;&lt;br&gt;right wrong appears after click" style="rounded=1;whiteSpace=wrap;html=1;fillColor=#fff2cc;strokeColor=#d6b656;" vertex="1" parent="1">
          <mxGeometry x="325" y="130" width="200" height="200" as="geometry" />
        </mxCell>
        <mxCell id="B38ijn1Cd_YMwXdmA-u2-8" value="&lt;div style=&quot;text-align: left;&quot;&gt;view high scores&amp;nbsp; &amp;nbsp; &amp;nbsp; &amp;nbsp; &amp;nbsp; &amp;nbsp; &amp;nbsp; &amp;nbsp; &amp;nbsp; &amp;nbsp; &amp;nbsp; &amp;nbsp; &amp;nbsp; &amp;nbsp;&lt;/div&gt;&lt;div style=&quot;text-align: right;&quot;&gt;timer&lt;/div&gt;&lt;br&gt;&lt;br&gt;&lt;br&gt;End screen&lt;br&gt;score displays&lt;br&gt;enter initials&amp;nbsp;&lt;br&gt;&lt;br&gt;&lt;br&gt;Submit button" style="rounded=1;whiteSpace=wrap;html=1;fillColor=#d5e8d4;strokeColor=#82b366;" vertex="1" parent="1">
          <mxGeometry x="330" y="700" width="200" height="200" as="geometry" />
        </mxCell>
        <mxCell id="B38ijn1Cd_YMwXdmA-u2-9" value="&lt;div style=&quot;text-align: left;&quot;&gt;&lt;br&gt;&lt;/div&gt;&lt;br&gt;high scores screen displays&lt;br&gt;&lt;br&gt;two buttons underneath&lt;br&gt;go back button&lt;br&gt;clear high scores button&lt;br&gt;&lt;br&gt;returns to title screen after this" style="rounded=1;whiteSpace=wrap;html=1;fillColor=#e1d5e7;strokeColor=#9673a6;" vertex="1" parent="1">
          <mxGeometry x="570" y="820" width="200" height="200" as="geometry" />
        </mxCell>
        <mxCell id="B38ijn1Cd_YMwXdmA-u2-10" value="&lt;div style=&quot;text-align: left;&quot;&gt;view high scores&amp;nbsp; &amp;nbsp; &amp;nbsp; &amp;nbsp; &amp;nbsp; &amp;nbsp; &amp;nbsp; &amp;nbsp; &amp;nbsp; &amp;nbsp; &amp;nbsp; &amp;nbsp; &amp;nbsp; &amp;nbsp;&lt;/div&gt;&lt;div style=&quot;text-align: right;&quot;&gt;timer&lt;/div&gt;&lt;br&gt;&lt;br&gt;&lt;br&gt;question&amp;nbsp; 3 with&amp;nbsp;&lt;br&gt;4 solution buttons&lt;br&gt;&lt;br&gt;&lt;br&gt;&lt;br&gt;right wrong appears after click" style="rounded=1;whiteSpace=wrap;html=1;fillColor=#fff2cc;strokeColor=#d6b656;" vertex="1" parent="1">
          <mxGeometry x="80" y="420" width="200" height="200" as="geometry" />
        </mxCell>
        <mxCell id="B38ijn1Cd_YMwXdmA-u2-11" value="&lt;div style=&quot;text-align: left;&quot;&gt;view high scores&amp;nbsp; &amp;nbsp; &amp;nbsp; &amp;nbsp; &amp;nbsp; &amp;nbsp; &amp;nbsp; &amp;nbsp; &amp;nbsp; &amp;nbsp; &amp;nbsp; &amp;nbsp; &amp;nbsp; &amp;nbsp;&lt;/div&gt;&lt;div style=&quot;text-align: right;&quot;&gt;timer&lt;/div&gt;&lt;br&gt;&lt;br&gt;&lt;br&gt;question 2 with&amp;nbsp;&lt;br&gt;4 solution buttons&lt;br&gt;&lt;br&gt;&lt;br&gt;&lt;br&gt;right wrong appears after click" style="rounded=1;whiteSpace=wrap;html=1;fillColor=#fff2cc;strokeColor=#d6b656;" vertex="1" parent="1">
          <mxGeometry x="560" y="130" width="200" height="200" as="geometry" />
        </mxCell>
        <mxCell id="B38ijn1Cd_YMwXdmA-u2-12" value="&lt;div style=&quot;text-align: left;&quot;&gt;view high scores&amp;nbsp; &amp;nbsp; &amp;nbsp; &amp;nbsp; &amp;nbsp; &amp;nbsp; &amp;nbsp; &amp;nbsp; &amp;nbsp; &amp;nbsp; &amp;nbsp; &amp;nbsp; &amp;nbsp; &amp;nbsp;&lt;/div&gt;&lt;div style=&quot;text-align: right;&quot;&gt;timer&lt;/div&gt;&lt;br&gt;&lt;br&gt;&lt;br&gt;question 5 with&amp;nbsp;&lt;br&gt;4 solution buttons&lt;br&gt;&lt;br&gt;&lt;br&gt;&lt;br&gt;right wrong appears after click" style="rounded=1;whiteSpace=wrap;html=1;fillColor=#fff2cc;strokeColor=#d6b656;" vertex="1" parent="1">
          <mxGeometry x="550" y="420" width="200" height="200" as="geometry" />
        </mxCell>
        <mxCell id="B38ijn1Cd_YMwXdmA-u2-13" value="&lt;div style=&quot;text-align: left;&quot;&gt;view high scores&amp;nbsp; &amp;nbsp; &amp;nbsp; &amp;nbsp; &amp;nbsp; &amp;nbsp; &amp;nbsp; &amp;nbsp; &amp;nbsp; &amp;nbsp; &amp;nbsp; &amp;nbsp; &amp;nbsp; &amp;nbsp;&lt;/div&gt;&lt;div style=&quot;text-align: right;&quot;&gt;timer&lt;/div&gt;&lt;br&gt;&lt;br&gt;&lt;br&gt;question 4 with&amp;nbsp;&lt;br&gt;4 solution buttons&lt;br&gt;&lt;br&gt;&lt;br&gt;&lt;br&gt;right wrong appears after click" style="rounded=1;whiteSpace=wrap;html=1;fillColor=#fff2cc;strokeColor=#d6b656;" vertex="1" parent="1">
          <mxGeometry x="320" y="420" width="200" height="200" as="geometry" />
        </mxCell>
      </root>
    </mxGraphModel>
  </diagram>
</mxfile>
